<?xml version="1.0" standalone="no"?>
<!DOCTYPE svg PUBLIC "-//W3C//DTD SVG 20010904//EN"
 "http://www.w3.org/TR/2001/REC-SVG-20010904/DTD/svg10.dtd">
<svg version="1.0" xmlns="http://www.w3.org/2000/svg"
 width="400.000000pt" height="400.000000pt" viewBox="0 0 400.000000 400.000000"
 preserveAspectRatio="xMidYMid meet">
<metadata>
Created by potrace 1.16, written by Peter Selinger 2001-2019
</metadata>
<g transform="translate(0.000000,400.000000) scale(0.100000,-0.100000)"
fill="#000000" stroke="none">
<path d="M1760 2000 l0 -920 240 0 240 0 0 920 0 920 -240 0 -240 0 0 -920z"/>
<path d="M960 1760 l0 -680 240 0 240 0 0 680 0 680 -240 0 -240 0 0 -680z"/>
<path d="M2560 1520 l0 -440 240 0 240 0 0 440 0 440 -240 0 -240 0 0 -440z"/>
</g>
</svg>
